<?xml version="1.0" encoding="utf-8"?>
<!-- Generator: Adobe Illustrator 28.2.0, SVG Export Plug-In . SVG Version: 6.00 Build 0)  -->
<svg version="1.1" id="Layer_1" xmlns="http://www.w3.org/2000/svg" xmlns:xlink="http://www.w3.org/1999/xlink" x="0px" y="0px"
	 viewBox="0 0 848.4 624.2" style="enable-background:new 0 0 848.4 624.2;" xml:space="preserve">
<style type="text/css">
	.st0{fill:#FFFFFF;}
	.st1{fill:#39B54A;}
</style>
<rect x="0" width="848.4" height="624.2"/>
<g>
	<g>
		<g>
			<g>
				<path class="st0" d="M237.3,363.3h-21.1V216h21.1V363.3z"/>
				<path class="st0" d="M362.9,342.2h-21.1v21.1h-63.1v-21.1h-21.1V216h21.1v126.2h63.1V216h21.1V342.2z"/>
				<path class="st0" d="M488.5,279.2h-21.1v21.1h-63.1v63.1h-21.1V216h84.1v21.1h21.1V279.2z M467.5,279.2v-42.1h-63.1v42.1H467.5z
					"/>
			</g>
			<rect x="195.2" y="216" class="st0" width="21.1" height="21.1"/>
			<g>
				<path class="st0" d="M211.6,408.1H199v-3.7h-3.8v-4.9h4.9v3.8h10.3v-6.5H199V393h-3.8v-8.8h3.8v-3.8h12.5v3.8h3.8v5h-5v-3.8
					h-10.3v6.5h11.4v3.8h3.8v8.7h-3.8V408.1z"/>
				<path class="st0" d="M223.4,404.4h-3.8V388h4.9v15.2h10.3V388h5v20.1h-16.3V404.4z"/>
				<path class="st0" d="M260.3,408.1H244v-4.9h15.2v-2.7h-11.4v-3.8H244v-4.9h3.8V388h16.3v5h-15.2v2.7h11.4v3.8h3.8v4.9h-3.8
					V408.1z"/>
				<path class="st0" d="M277.1,408.1h-4.9V393h-3.8v-5h3.8v-7.6h4.9v7.6h3.8v5h-3.8V408.1z"/>
				<path class="st0" d="M301.5,408.1H289v-3.7h-3.8v-4.9h3.8v-3.8h11.4V393h-15.2v-5h16.3v3.8h3.8v12.5h-3.8V408.1z M290.1,400.6
					v2.7h10.3v-2.7H290.1z"/>
				<path class="st0" d="M309.5,380.5h4.9v4.9h-4.9V380.5z M309.5,388h4.9v20.1h-4.9V388z"/>
				<path class="st0" d="M333.9,393h-10.3v15.1h-4.9V388h16.3v3.8h3.8v16.3h-5V393z"/>
				<path class="st0" d="M359.5,408.1h-12.5v-3.7h-3.8v-4.9h3.8v-3.8h11.4V393h-15.2v-5h16.3v3.8h3.8v12.5h-3.8V408.1z M348,400.6
					v2.7h10.3v-2.7H348z"/>
				<path class="st0" d="M383.8,408.1h-16.3v-27.7h4.9v7.6h11.4v3.8h3.8v12.5h-3.8V408.1z M372.4,393v10.2h10.3V393H372.4z"/>
				<path class="st0" d="M391.9,380.5h4.9v4.9h-4.9V380.5z M391.9,388h4.9v20.1h-4.9V388z"/>
				<path class="st0" d="M401.1,380.5h4.9v27.7h-4.9V380.5z"/>
				<path class="st0" d="M411.5,380.5h4.9v4.9h-4.9V380.5z M411.5,388h4.9v20.1h-4.9V388z"/>
				<path class="st0" d="M429.4,408.1h-4.9V393h-3.8v-5h3.8v-7.6h4.9v7.6h3.8v5h-3.8V408.1z"/>
				<path class="st0" d="M441.2,410.8h11.4v-2.7h-11.4v-3.7h-3.8V388h4.9v15.2h10.3V388h5v27.7h-16.3V410.8z"/>
				<path class="st0" d="M496.8,389.2h-2.7v3.8h-3.8v15.1h-5V393h-3.8v-3.8h-2.7v18.9h-4.9v-27.7h4.9v3.8h3.8v3.8h3.8v3.8h2.7V388
					h3.8v-3.8h3.8v-3.8h4.9v27.7h-4.9V389.2z"/>
				<path class="st0" d="M509.7,404.4h-3.8V388h4.9v15.2h10.3V388h5v20.1h-16.3V404.4z"/>
				<path class="st0" d="M530.3,380.5h4.9v27.7h-4.9V380.5z"/>
				<path class="st0" d="M548.2,408.1h-4.9V393h-3.8v-5h3.8v-7.6h4.9v7.6h3.8v5h-3.8V408.1z"/>
				<path class="st0" d="M556.3,380.5h4.9v4.9h-4.9V380.5z M556.3,388h4.9v20.1h-4.9V388z"/>
				<path class="st0" d="M581.8,408.1h-11.4v7.6h-4.9V388h16.3v3.8h3.8v12.5h-3.8V408.1z M570.4,393v10.2h10.3V393H570.4z"/>
				<path class="st0" d="M589.8,380.5h4.9v27.7h-4.9V380.5z"/>
				<path class="st0" d="M599,380.5h4.9v4.9H599V380.5z M599,388h4.9v20.1H599V388z"/>
				<path class="st0" d="M610.7,404.4h-3.8v-12.5h3.8V388h12.5v3.8h3.8v4.9h-3.8v3.8h-11.4v2.7h15.2v4.9h-16.3V404.4z M611.9,393
					v2.7h10.3V393H611.9z"/>
				<path class="st0" d="M635.1,404.4h-3.8v-12.5h3.8V388h11.4v-7.6h5v27.7h-16.3V404.4z M636.3,393v10.2h10.3V393H636.3z"/>
			</g>
		</g>
	</g>
	<g>
		<rect x="563.1" y="274.9" class="st1" width="29.5" height="29.5"/>
		<rect x="592.6" y="304.4" class="st1" width="29.5" height="29.5"/>
		<rect x="622" y="333.8" class="st1" width="29.5" height="29.5"/>
		
			<rect x="533.7" y="304.4" transform="matrix(-1 -4.514934e-11 4.514934e-11 -1 1096.7981 638.2337)" class="st1" width="29.5" height="29.5"/>
		
			<rect x="504.2" y="333.8" transform="matrix(-1 -4.484070e-11 4.484070e-11 -1 1037.8967 697.1351)" class="st1" width="29.5" height="29.5"/>
		<rect x="592.6" y="245.5" class="st1" width="29.5" height="29.5"/>
		<rect x="622" y="216" class="st1" width="29.5" height="29.5"/>
		
			<rect x="533.7" y="245.5" transform="matrix(-1 4.484045e-11 -4.484045e-11 -1 1096.7981 520.431)" class="st1" width="29.5" height="29.5"/>
		
			<rect x="504.2" y="216" transform="matrix(-1 4.484045e-11 -4.484045e-11 -1 1037.8967 461.5296)" class="st1" width="29.5" height="29.5"/>
	</g>
</g>
</svg>
